<svg viewBox="0 0 70 70" class="logo-svg"><defs id="SvgjsDefs1866"></defs><g id="SvgjsG1867" featurekey="symbolFeature-0" transform="matrix(0.8961277682169527,0,0,0.8961277682169527,-9.803141732121961,-9.840725948230899)" fill="#f6f6f6"><g xmlns="http://www.w3.org/2000/svg"><path d="M44.8,88.7c1.8,0.2,3.5,0.4,5.3,0.4c8.5,0,16.7-2.8,23.6-8c8.3-6.3,13.6-15.5,15-25.8S87.3,34.6,81,26.3   c-6.3-8.3-15.5-13.6-25.8-15C44.8,10,34.6,12.7,26.3,19c-8.3,6.3-13.6,15.5-15,25.8s1.3,20.6,7.7,28.8C25.3,82,34.5,87.3,44.8,88.7   z M13.3,45.1c1.3-9.8,6.4-18.5,14.2-24.5c6.5-5,14.3-7.6,22.4-7.6c1.7,0,3.3,0.1,5,0.3c9.8,1.3,18.5,6.4,24.5,14.2   c6,7.9,8.6,17.6,7.3,27.4c-1.3,9.8-6.4,18.5-14.2,24.5c-7.9,6-17.6,8.6-27.4,7.3c-9.8-1.3-18.5-6.4-24.5-14.2   C14.6,64.6,12,54.9,13.3,45.1z"></path><path d="M41.3,56.7c1.8,2.3,4.4,3.8,7.3,4.2C49,61,49.5,61,50,61c2.4,0,4.7-0.8,6.7-2.3c4.8-3.7,5.7-10.6,2.1-15.4   c-1.8-2.3-4.4-3.8-7.3-4.2c-2.9-0.4-5.8,0.4-8.1,2.2C38.5,44.9,37.6,51.9,41.3,56.7z M44.5,42.8C46.1,41.6,48,41,50,41   c0.4,0,0.8,0,1.2,0.1c2.4,0.3,4.5,1.5,6,3.5c1.5,1.9,2.1,4.3,1.8,6.7c-0.3,2.4-1.5,4.5-3.5,6c-1.9,1.5-4.3,2.1-6.7,1.8   c-2.4-0.3-4.5-1.5-6-3.5c-1.5-1.9-2.1-4.3-1.8-6.7C41.4,46.4,42.6,44.3,44.5,42.8z"></path><path d="M31.2,25.4c2.9-2.2,6.1-3.9,9.6-5l-0.6-1.9c-3.7,1.1-7.1,2.9-10.2,5.3c-5.8,4.4-9.8,10.4-11.8,17.4l1.9,0.5   C21.9,35.2,25.8,29.5,31.2,25.4z"></path><path d="M68.8,74.6c-3.1,2.4-6.6,4.1-10.3,5.2l0.5,1.9c4-1.1,7.7-3,11-5.5c6-4.6,10.3-11.2,12.1-18.6l-1.9-0.5   C78.5,64.1,74.5,70.3,68.8,74.6z"></path><path d="M64.6,69.1c-2.4,1.8-5,3.1-7.9,4l0.6,1.9c3.1-0.9,6-2.3,8.5-4.3c4.8-3.6,8.2-8.9,9.5-14.7l-1.9-0.5   C72.1,60.9,69,65.7,64.6,69.1z"></path><path d="M54.9,66.3l0.6,1.9c2.2-0.7,4.3-1.7,6.1-3.1c3.5-2.7,6-6.5,7-10.8l-1.9-0.4c-0.9,3.9-3.1,7.3-6.2,9.7   C58.7,64.7,56.9,65.7,54.9,66.3z"></path><path d="M31.8,44.5l1.9,0.6c1-3.4,3.1-6.4,5.9-8.6c1.6-1.2,3.4-2.2,5.4-2.8l-0.6-1.9c-2.2,0.7-4.3,1.7-6.1,3.1   C35.3,37.3,33,40.6,31.8,44.5z"></path><path d="M25,42.9l1.9,0.5c1.4-5,4.4-9.3,8.5-12.5c2.3-1.7,4.8-3,7.5-3.9l-0.6-1.9c-2.9,0.9-5.7,2.3-8.1,4.2   C29.7,32.8,26.5,37.4,25,42.9z"></path></g></g></svg>